<mxfile host="app.diagrams.net" agent="Mozilla/5.0 (Windows NT 10.0; Win64; x64) AppleWebKit/537.36 (KHTML, like Gecko) Chrome/139.0.0.0 Safari/537.36" version="28.0.9">
  <diagram name="Page-1" id="QJJEaqSpxrOkeXgdfsAd">
    <mxGraphModel dx="983" dy="1745" grid="1" gridSize="10" guides="1" tooltips="1" connect="1" arrows="1" fold="1" page="1" pageScale="1" pageWidth="850" pageHeight="1100" math="0" shadow="0">
      <root>
        <mxCell id="0" />
        <mxCell id="1" parent="0" />
        <mxCell id="HAT9x-UVFjfi3HFNNIC7-6" style="edgeStyle=orthogonalEdgeStyle;rounded=0;orthogonalLoop=1;jettySize=auto;html=1;exitX=0.5;exitY=1;exitDx=0;exitDy=0;" edge="1" parent="1" source="Jfd1ZmQ54w4YHW_Ka4bA-2" target="HAT9x-UVFjfi3HFNNIC7-2">
          <mxGeometry relative="1" as="geometry" />
        </mxCell>
        <mxCell id="Jfd1ZmQ54w4YHW_Ka4bA-2" value="" style="ellipse;whiteSpace=wrap;html=1;" parent="1" vertex="1">
          <mxGeometry x="240" y="-10" width="320" height="80" as="geometry" />
        </mxCell>
        <mxCell id="HAT9x-UVFjfi3HFNNIC7-11" style="edgeStyle=orthogonalEdgeStyle;rounded=0;orthogonalLoop=1;jettySize=auto;html=1;exitX=1;exitY=0.5;exitDx=0;exitDy=0;" edge="1" parent="1" source="HAT9x-UVFjfi3HFNNIC7-2" target="HAT9x-UVFjfi3HFNNIC7-17">
          <mxGeometry relative="1" as="geometry">
            <mxPoint x="640" y="320" as="targetPoint" />
            <Array as="points">
              <mxPoint x="575" y="270" />
              <mxPoint x="635" y="271" />
            </Array>
          </mxGeometry>
        </mxCell>
        <mxCell id="HAT9x-UVFjfi3HFNNIC7-13" style="edgeStyle=orthogonalEdgeStyle;rounded=0;orthogonalLoop=1;jettySize=auto;html=1;exitX=0;exitY=0.5;exitDx=0;exitDy=0;entryX=0.423;entryY=-0.004;entryDx=0;entryDy=0;entryPerimeter=0;" edge="1" parent="1" source="HAT9x-UVFjfi3HFNNIC7-2" target="HAT9x-UVFjfi3HFNNIC7-10">
          <mxGeometry relative="1" as="geometry">
            <mxPoint x="200" y="270" as="targetPoint" />
          </mxGeometry>
        </mxCell>
        <mxCell id="HAT9x-UVFjfi3HFNNIC7-2" value="" style="rhombus;whiteSpace=wrap;html=1;fontFamily=Helvetica;" vertex="1" parent="1">
          <mxGeometry x="330" y="200" width="140" height="140" as="geometry" />
        </mxCell>
        <mxCell id="HAT9x-UVFjfi3HFNNIC7-19" style="edgeStyle=orthogonalEdgeStyle;rounded=0;orthogonalLoop=1;jettySize=auto;html=1;exitX=0.5;exitY=1;exitDx=0;exitDy=0;" edge="1" parent="1" source="HAT9x-UVFjfi3HFNNIC7-10" target="HAT9x-UVFjfi3HFNNIC7-23">
          <mxGeometry relative="1" as="geometry">
            <mxPoint x="420" y="830" as="targetPoint" />
            <Array as="points">
              <mxPoint x="175" y="580" />
              <mxPoint x="420" y="580" />
            </Array>
          </mxGeometry>
        </mxCell>
        <mxCell id="HAT9x-UVFjfi3HFNNIC7-10" value="" style="rounded=0;whiteSpace=wrap;html=1;" vertex="1" parent="1">
          <mxGeometry x="80" y="350" width="190" height="100" as="geometry" />
        </mxCell>
        <mxCell id="HAT9x-UVFjfi3HFNNIC7-17" value="" style="rounded=0;whiteSpace=wrap;html=1;" vertex="1" parent="1">
          <mxGeometry x="540" y="350" width="190" height="100" as="geometry" />
        </mxCell>
        <mxCell id="HAT9x-UVFjfi3HFNNIC7-24" value="" style="edgeStyle=orthogonalEdgeStyle;rounded=0;orthogonalLoop=1;jettySize=auto;html=1;exitX=0.5;exitY=1;exitDx=0;exitDy=0;" edge="1" parent="1" source="HAT9x-UVFjfi3HFNNIC7-17" target="HAT9x-UVFjfi3HFNNIC7-23">
          <mxGeometry relative="1" as="geometry">
            <mxPoint x="410" y="670" as="targetPoint" />
            <mxPoint x="635" y="450" as="sourcePoint" />
          </mxGeometry>
        </mxCell>
        <mxCell id="HAT9x-UVFjfi3HFNNIC7-23" value="" style="ellipse;whiteSpace=wrap;html=1;" vertex="1" parent="1">
          <mxGeometry x="290" y="700" width="320" height="80" as="geometry" />
        </mxCell>
      </root>
    </mxGraphModel>
  </diagram>
</mxfile>
